<?xml version="1.0" standalone="no"?>
<!DOCTYPE svg PUBLIC "-//W3C//DTD SVG 20010904//EN"
 "http://www.w3.org/TR/2001/REC-SVG-20010904/DTD/svg10.dtd">
<svg version="1.0" xmlns="http://www.w3.org/2000/svg"
 width="250.000000pt" height="250.000000pt" viewBox="0 0 250.000000 250.000000"
 preserveAspectRatio="xMidYMid meet">

<g transform="translate(0.000000,250.000000) scale(0.100000,-0.100000)"
fill="#000000" stroke="none">
<path d="M1552 2329 c-5 -12 -5 -44 -1 -72 11 -77 10 -401 -1 -482 -13 -89
-27 -124 -55 -135 -35 -13 -63 -1 -86 36 -11 18 -37 43 -57 54 -21 12 -48 36
-61 55 -28 41 -75 59 -151 59 -66 -1 -115 -21 -115 -49 0 -20 19 -28 100 -40
29 -5 51 -18 80 -49 22 -23 57 -54 77 -69 53 -39 125 -152 133 -207 8 -56 -6
-94 -51 -140 -19 -19 -49 -51 -67 -70 -18 -19 -46 -43 -62 -53 -17 -9 -46 -29
-65 -43 -44 -32 -62 -29 -185 31 -59 29 -100 56 -110 73 -10 15 -39 47 -65 72
-41 39 -48 53 -59 107 -7 34 -19 70 -28 79 -16 15 -18 15 -36 -7 -16 -20 -18
-36 -15 -100 3 -69 7 -82 35 -121 18 -24 48 -67 68 -95 19 -29 39 -53 44 -53
20 0 71 -53 71 -74 0 -12 -12 -33 -26 -47 l-26 -24 -334 -3 c-311 -3 -334 -4
-344 -21 -13 -26 13 -46 79 -60 30 -6 76 -23 102 -37 l47 -26 49 18 c58 23
213 24 317 3 64 -12 70 -12 153 15 156 51 289 45 308 -15 9 -26 -2 -84 -22
-124 -27 -51 -126 -156 -168 -177 -22 -12 -59 -37 -82 -58 -23 -20 -60 -42
-82 -50 -52 -17 -78 -44 -62 -64 31 -37 121 -25 171 24 19 19 58 37 113 54 75
23 89 31 139 83 47 50 57 68 72 128 19 78 38 105 71 105 29 0 52 -36 66 -102
6 -29 31 -94 56 -144 l45 -91 4 -129 c4 -131 16 -184 40 -184 7 0 18 8 23 19
14 26 29 235 22 301 -9 77 1 137 27 163 18 18 32 21 82 19 56 -2 62 0 101 35
47 43 69 86 69 137 0 48 8 65 41 81 33 18 84 19 143 4 34 -8 67 -7 147 5 115
18 162 33 156 50 -8 25 -55 36 -157 36 -125 0 -208 19 -267 60 -23 17 -70 37
-110 46 -98 22 -139 68 -95 107 9 8 52 24 94 35 119 30 160 68 212 195 16 37
41 83 57 103 43 55 52 163 14 177 -20 8 -40 -15 -61 -70 -9 -27 -34 -65 -56
-87 -21 -21 -48 -56 -58 -77 -11 -21 -33 -45 -48 -53 -15 -8 -43 -30 -62 -50
-37 -39 -81 -56 -146 -56 -62 0 -79 25 -78 115 0 61 6 85 34 147 l34 73 7 255
c3 140 4 262 1 270 -3 8 -21 34 -38 57 -18 24 -35 53 -39 65 -16 58 -28 78
-47 78 -10 0 -22 -9 -26 -21z"/>
</g>
</svg>
