<?xml version="1.0" standalone="no"?>
<!DOCTYPE svg PUBLIC "-//W3C//DTD SVG 20010904//EN"
 "http://www.w3.org/TR/2001/REC-SVG-20010904/DTD/svg10.dtd">
<svg version="1.0" xmlns="http://www.w3.org/2000/svg"
 width="683.000000pt" height="683.000000pt" viewBox="0 0 683.000000 683.000000"
 preserveAspectRatio="xMidYMid meet">
<metadata>
Created by potrace 1.16, written by Peter Selinger 2001-2019
</metadata>
<g transform="translate(0.000000,683.000000) scale(0.070998,-0.070998)"
fill="#000000" stroke="none">
<path d="M4460 9614 c-953 -84 -1791 -397 -2525 -943 -189 -142 -300 -237
-479 -411 -810 -790 -1289 -1768 -1433 -2920 -26 -209 -26 -851 0 -1060 110
-886 416 -1660 926 -2345 142 -189 237 -300 411 -479 790 -810 1768 -1289
2920 -1433 209 -26 851 -26 1060 0 1013 126 1908 521 2640 1164 148 130 403
390 515 523 614 736 980 1589 1102 2570 14 117 18 219 18 530 0 311 -4 413
-18 530 -126 1013 -521 1908 -1164 2640 -130 148 -390 403 -523 515 -733 611
-1589 979 -2560 1101 -99 12 -231 17 -490 19 -195 1 -375 1 -400 -1z m585
-578 c56 -7 113 -23 150 -40 158 -75 335 -195 440 -301 178 -179 283 -336 530
-790 54 -99 115 -208 136 -243 22 -35 39 -65 39 -68 0 -2 22 -40 50 -85 98
-158 250 -328 425 -475 125 -105 386 -374 467 -481 152 -202 216 -331 244
-495 17 -99 14 -146 -18 -267 -33 -126 -92 -222 -209 -340 -95 -95 -179 -158
-360 -269 -133 -82 -219 -129 -464 -256 -44 -22 -81 -44 -83 -48 -2 -5 -8 -8
-12 -8 -16 0 -304 -172 -333 -199 l-28 -26 5 50 c3 28 8 74 11 103 3 29 8 59
11 67 6 15 194 130 304 186 73 37 286 166 400 242 167 112 267 213 320 323 42
87 53 152 47 271 -3 62 -1 103 5 103 5 0 6 -5 2 -11 -4 -7 1 -9 12 -7 41 8 1
141 -76 252 -87 127 -267 265 -490 373 -102 50 -250 106 -250 95 0 -4 -4 -2
-8 3 -4 6 -81 35 -172 64 -91 29 -185 60 -210 69 -25 9 -52 15 -62 14 -9 -2
-19 2 -23 8 -3 6 -11 8 -16 5 -5 -4 -9 -3 -9 2 0 4 -10 8 -22 9 -25 1 -86 8
-163 19 -27 4 -56 12 -62 17 -7 6 -13 7 -13 3 0 -4 -12 0 -26 10 -14 9 -28 14
-32 11 -3 -3 1 -6 8 -6 7 0 11 -2 8 -5 -8 -9 -56 16 -62 32 -5 11 0 13 17 8
21 -6 21 -6 3 9 -11 9 -16 16 -12 16 4 0 4 5 0 12 -5 8 -10 6 -16 -8 -8 -18
-8 -18 -5 1 2 15 9 19 27 17 24 -2 24 -2 5 12 -11 8 -27 13 -37 11 -11 -3 -15
1 -11 11 4 11 0 13 -19 5 -14 -5 -31 -5 -40 0 -8 4 -25 7 -36 4 -14 -2 -23 3
-27 16 -4 10 -11 19 -16 19 -6 0 -6 -7 0 -19 10 -17 8 -18 -13 -8 -14 7 -22
15 -20 19 3 5 -4 8 -15 8 -11 0 -26 7 -34 15 -12 11 -16 12 -20 2 -3 -9 -10
-7 -25 6 -20 18 -48 15 -37 -4 3 -5 -1 -6 -9 -3 -9 3 -16 9 -16 13 0 4 -9 7
-20 7 -11 0 -20 -4 -20 -8 0 -4 -5 -8 -11 -8 -5 0 -7 5 -4 10 3 6 1 10 -4 10
-6 0 -11 -5 -11 -10 0 -6 -8 -5 -20 2 -16 10 -24 10 -40 0 -14 -8 -19 -9 -18
-1 3 13 -59 16 -364 23 -103 2 -229 0 -280 -3 -227 -17 -67 22 207 50 163 17
697 18 855 1 237 -25 395 -56 532 -103 49 -17 93 -29 99 -27 6 2 -24 26 -66
53 -43 27 -89 65 -103 85 -42 56 -216 250 -327 364 -27 28 -60 65 -73 81 -13
17 -21 23 -17 15 4 -8 -3 -3 -15 13 -12 15 -26 25 -30 22 -5 -3 -7 4 -5 16 3
17 2 19 -10 9 -12 -10 -13 -8 -10 10 3 16 0 20 -11 16 -8 -3 -13 -2 -9 3 7 12
-5 41 -17 41 -5 0 -6 -4 -3 -10 3 -5 1 -10 -4 -10 -10 0 -15 20 -13 41 1 4 -7
5 -17 2 -14 -3 -20 3 -24 27 -4 17 -11 29 -17 25 -5 -3 -10 -1 -10 5 0 6 -11
15 -24 20 -18 6 -23 14 -19 28 2 11 -1 23 -8 27 -7 5 -10 4 -6 -3 5 -6 -2 -6
-18 1 -16 8 -24 18 -22 29 3 9 -7 25 -25 38 -21 15 -26 25 -19 33 12 15 -32
60 -60 62 -11 1 -28 10 -37 20 -12 13 -13 15 -2 9 8 -5 23 -10 33 -11 15 -3
16 -1 5 11 -7 8 -17 11 -22 8 -5 -3 -6 3 -2 13 5 14 4 16 -7 6 -12 -9 -17 -5
-27 19 -7 16 -17 30 -22 30 -5 0 -6 -6 -2 -12 4 -7 -2 -4 -13 8 -25 25 -48 66
-45 78 5 15 -22 26 -30 13 -6 -9 -8 -9 -8 1 0 7 -4 10 -10 7 -5 -3 -10 -2 -10
3 0 5 11 10 25 10 37 0 42 9 17 32 -12 12 -22 16 -22 10 0 -6 -4 -9 -9 -5 -5
3 -12 1 -16 -5 -3 -5 -1 -10 5 -10 7 0 6 -5 -2 -14 -7 -8 -17 -12 -22 -9 -4 3
-2 9 5 14 12 7 11 9 -1 9 -11 1 -10 4 4 15 20 15 20 15 0 31 -10 8 -13 13 -6
9 6 -3 12 -1 12 4 0 14 -12 14 -28 1 -6 -6 -10 -7 -7 -3 3 3 -2 17 -10 30 -12
17 -12 23 -3 23 7 1 -2 7 -20 15 -21 9 -31 19 -27 27 4 7 0 5 -8 -4 -21 -27
-30 -22 -11 7 15 23 15 24 -10 31 -14 3 -26 10 -26 15 0 5 -7 6 -16 2 -14 -5
-14 -3 -3 15 10 15 16 18 21 9 5 -7 8 -8 8 -1 0 19 -13 24 -27 12 -16 -13 -33
4 -33 35 0 9 -4 17 -10 17 -5 0 -7 6 -4 14 4 11 0 13 -15 9 -16 -4 -19 -9 -11
-18 8 -10 8 -15 -1 -21 -8 -4 -9 -3 -5 4 4 7 2 12 -4 12 -6 0 -8 10 -5 23 4
16 -1 29 -19 47 -15 13 -26 18 -26 12 0 -7 3 -12 8 -12 4 0 13 -9 19 -19 10
-16 9 -18 -7 -14 -11 3 -19 8 -18 12 2 18 -3 22 -16 11 -13 -10 -13 -8 -3 14
7 14 15 26 20 26 4 0 7 4 7 10 0 5 -6 7 -13 4 -8 -3 -14 2 -14 10 0 8 4 13 9
10 4 -3 8 -2 8 3 0 4 -12 13 -26 20 -22 10 -25 10 -19 -4 5 -14 2 -14 -15 2
-15 14 -19 15 -15 4 4 -10 0 -16 -10 -16 -9 0 -14 6 -10 14 15 37 17 47 10 41
-5 -5 -14 1 -22 12 -8 11 -20 20 -26 20 -7 0 -4 -5 6 -11 9 -5 17 -15 17 -21
0 -7 -4 -7 -13 1 -8 6 -17 8 -20 4 -4 -3 -7 1 -7 10 0 10 -6 17 -12 18 -7 0
-21 2 -31 4 -10 2 -37 -3 -60 -11 -23 -9 -53 -17 -67 -18 -32 -4 -65 -17 -168
-69 -59 -29 -85 -38 -93 -30 -8 8 -6 11 7 10 12 -1 19 4 18 15 -1 10 3 15 9
11 6 -4 8 0 4 11 -4 10 -3 15 3 11 6 -3 10 1 10 9 0 9 6 16 14 16 8 0 16 7 20
15 3 8 10 15 16 15 5 0 30 16 56 35 25 19 50 35 56 35 6 0 19 6 27 13 20 17
105 50 196 76 203 58 438 71 680 37z m-3638 -1642 c8 -8 13 -14 11 -14 -2 0
-17 -4 -35 -9 -26 -7 -31 -7 -26 5 3 8 0 14 -6 14 -6 0 -11 -4 -11 -9 0 -5 -9
-13 -20 -16 -11 -4 -18 -10 -16 -13 2 -4 -1 -28 -8 -55 -7 -26 -11 -57 -11
-69 4 -55 18 -128 26 -128 5 0 8 -3 7 -8 -4 -11 38 -62 46 -55 3 3 6 1 6 -6 0
-7 4 -10 9 -7 5 4 16 3 25 0 13 -5 14 -10 5 -20 -6 -7 -8 -18 -4 -24 3 -6 -3
-10 -14 -10 -12 0 -21 5 -21 11 0 5 -4 8 -9 5 -5 -3 -24 1 -43 8 -32 14 -55
44 -57 76 -6 80 -19 149 -34 170 -22 32 -23 62 0 53 12 -5 15 -2 10 10 -3 9
-3 17 2 17 5 0 11 8 13 18 3 9 22 26 44 37 21 11 40 22 42 25 5 11 56 7 69 -6z
m4088 -674 c131 -14 189 -27 269 -60 89 -37 126 -75 151 -158 10 -32 23 -60
29 -64 21 -14 -22 -17 -279 -22 -251 -5 -264 -6 -365 -34 -58 -17 -127 -38
-154 -48 l-48 -17 25 -13 c14 -8 42 -41 62 -74 44 -72 77 -100 120 -100 51 0
77 28 83 88 3 40 0 59 -17 87 -15 26 -17 37 -8 40 39 12 268 35 354 35 84 0
102 3 107 16 5 14 9 14 22 3 11 -9 39 -12 85 -10 58 2 70 -1 76 -15 10 -27
-12 -237 -26 -242 -9 -3 -9 -7 -1 -18 7 -7 9 -18 6 -23 -8 -12 -177 -64 -261
-80 -178 -35 -336 -61 -465 -76 -243 -29 -301 -34 -400 -33 l-95 1 140 13 140
12 -125 -4 c-69 -3 -154 -8 -190 -12 -60 -6 -62 -7 -30 -14 80 -16 -353 3
-576 26 -297 31 -324 35 -324 51 0 36 214 203 281 220 24 6 26 4 22 -17 -3
-14 4 -34 17 -51 48 -61 149 -18 186 78 16 43 20 46 80 65 126 39 257 112 339
189 73 69 200 171 213 171 21 0 13 -53 -16 -115 -25 -53 -39 -67 -106 -112
-44 -30 -93 -55 -114 -58 -76 -11 -117 -29 -120 -52 -3 -19 5 -24 49 -37 28
-9 88 -19 132 -22 78 -7 82 -9 131 -53 28 -25 67 -57 86 -71 l35 -25 -25 35
c-13 19 -41 56 -62 81 -21 25 -38 48 -38 51 0 18 43 46 89 59 47 12 61 22 99
69 24 30 51 64 59 74 46 57 123 171 149 220 l29 56 50 -1 c28 0 86 -4 130 -9z
m-66 -2058 c-4 -41 -13 -89 -19 -107 -11 -33 -85 -106 -260 -254 -91 -77 -157
-152 -201 -225 -30 -50 -51 -65 -88 -66 -8 0 -66 51 -130 113 -64 62 -197 183
-296 267 -99 85 -200 173 -225 196 -25 23 -61 56 -80 74 l-35 32 35 -6 c19 -4
36 -10 38 -15 2 -5 13 -7 25 -5 12 2 16 1 8 -2 -14 -7 80 -64 106 -64 7 0 13
-5 13 -12 0 -6 3 -8 7 -5 3 4 13 1 21 -6 13 -10 14 -9 8 2 -6 8 0 7 18 -4 14
-10 26 -21 26 -26 0 -5 10 -9 23 -9 12 -1 40 -8 62 -16 22 -9 46 -16 53 -16 6
-1 12 -6 12 -11 0 -6 3 -8 6 -5 3 4 35 -7 71 -24 36 -16 75 -27 85 -25 11 3
37 -1 59 -8 35 -13 44 -12 110 11 97 34 126 49 268 144 67 44 126 78 132 75 5
-4 8 -1 7 5 -2 6 29 33 67 59 66 45 70 46 76 27 3 -12 2 -54 -2 -94z m-1521 0
c12 -13 22 -20 22 -16 0 4 9 -5 21 -20 11 -14 33 -33 47 -40 15 -8 37 -24 50
-36 12 -11 22 -18 22 -14 0 3 7 1 15 -6 8 -7 12 -16 9 -21 -3 -5 2 -6 10 -3 9
3 16 2 16 -3 0 -6 12 -15 28 -22 42 -20 153 -94 317 -214 155 -114 245 -192
245 -213 0 -7 11 -26 25 -42 25 -29 25 -30 4 -35 -31 -8 -47 0 -259 135 -219
140 -256 162 -460 278 -239 137 -217 116 -225 207 -3 43 -8 100 -12 127 l-5
50 53 -44 c30 -25 64 -55 77 -68z m1920 -16 l-12 -77 -80 -55 c-45 -30 -101
-71 -126 -90 -25 -19 -76 -58 -114 -87 -39 -29 -119 -97 -179 -152 -59 -55
-149 -135 -198 -178 -97 -83 -101 -84 -147 -34 l-23 24 47 59 c26 33 67 75 92
94 25 19 79 64 122 100 149 127 325 263 430 334 36 24 94 67 130 94 36 28 66
49 68 48 1 -2 -3 -37 -10 -80z m-2856 -128 c-16 -24 -46 -75 -66 -115 -42 -85
-223 -394 -276 -473 -20 -30 -53 -86 -72 -125 -59 -116 -385 -787 -404 -832
-10 -24 -21 -43 -26 -43 -11 0 -10 18 2 25 6 4 8 10 5 15 -3 5 -1 11 5 15 5 3
10 15 10 25 0 10 3 20 8 22 4 2 18 30 31 63 26 66 36 88 79 187 17 37 28 69
24 72 -3 3 -1 6 5 6 9 0 33 41 78 134 6 11 38 78 73 149 62 129 74 158 47 123
-18 -24 -19 -16 -3 19 6 14 16 25 21 25 6 0 8 3 4 6 -9 9 22 67 125 234 141
230 196 314 208 318 5 2 8 7 5 12 -3 5 10 23 27 41 18 18 32 38 30 43 -2 6 0
8 4 4 4 -5 22 15 41 42 18 28 36 50 39 50 3 0 -8 -19 -24 -42z m4182 -251
c180 -254 438 -805 546 -1168 25 -81 100 -375 103 -399 1 -8 7 -19 12 -23 6
-5 1 -6 -10 -2 -11 4 -27 8 -34 9 -8 2 -17 8 -19 14 -2 7 -9 10 -15 6 -7 -3
-3 2 7 10 20 16 15 19 -20 15 -7 0 -27 32 -44 71 -6 14 -15 34 -20 45 -5 11
-12 31 -16 45 -3 14 -15 43 -25 65 -10 22 -24 58 -32 80 -12 34 -53 147 -98
270 -6 17 -16 48 -21 70 -6 22 -14 49 -19 60 -8 22 -50 156 -105 340 -56 187
-130 359 -208 483 -64 102 -52 107 18 9z m-178 -804 c102 -53 99 -39 100 -498
1 -214 -1 -380 -3 -367 -4 22 -23 32 -23 12 0 -5 -3 -9 -7 -9 -17 3 -33 -1
-32 -8 1 -5 1 -24 0 -43 -1 -24 -4 -31 -10 -21 -5 7 -14 10 -20 6 -7 -4 -18
-2 -26 5 -10 8 -15 8 -21 -1 -4 -8 -3 -9 4 -5 7 4 12 2 12 -4 0 -7 -15 -10
-38 -9 -21 2 -43 0 -49 -4 -6 -4 -14 -3 -18 3 -3 5 -1 10 5 10 6 0 8 5 5 10
-4 7 -14 3 -25 -10 -17 -20 -36 -28 -26 -11 7 10 -42 33 -55 25 -5 -3 1 -14
13 -24 l23 -19 -34 9 c-26 7 -42 6 -63 -4 -15 -8 -28 -10 -28 -5 0 5 -12 8
-26 7 -23 -2 -24 -3 -7 -16 16 -11 15 -12 -7 -9 -14 2 -25 11 -25 20 0 8 -4
19 -8 23 -4 4 -7 -4 -7 -17 l0 -24 -18 28 -19 27 -24 -34 c-17 -24 -29 -32
-38 -26 -20 12 -5 44 16 36 10 -4 14 -4 10 0 -4 4 0 12 9 18 13 10 13 12 -5
12 -11 0 -17 -4 -15 -8 3 -4 -2 -8 -10 -8 -16 0 -39 -33 -30 -43 3 -3 -4 -8
-15 -12 -12 -3 -21 -11 -21 -16 0 -6 5 -7 12 -3 7 4 8 3 4 -5 -9 -14 -28 -4
-24 12 1 7 -3 22 -10 35 -10 18 -17 20 -32 12 -13 -7 -21 -7 -26 1 -9 14 -34
-16 -34 -41 0 -9 -9 -16 -22 -17 -13 0 -17 1 -10 4 6 3 9 9 6 15 -4 6 0 14 7
19 12 7 12 9 0 9 -7 0 -11 6 -8 14 4 10 1 13 -9 9 -9 -3 -12 -12 -9 -24 4 -11
2 -19 -4 -19 -6 0 -8 -7 -5 -15 4 -8 2 -15 -3 -15 -5 0 -9 9 -10 20 -1 11 3
20 8 20 6 0 8 4 4 9 -3 5 -18 7 -32 5 -35 -6 -43 -14 -16 -14 16 0 20 -5 16
-20 -3 -11 -10 -20 -15 -20 -5 0 -7 4 -4 8 2 4 -4 13 -15 20 -10 7 -19 8 -19
3 0 -5 -7 -11 -14 -14 -11 -4 -13 -1 -9 11 4 9 11 21 17 25 6 5 2 6 -9 2 -37
-13 -50 -12 -79 2 -28 15 -29 14 -23 -7 6 -23 -18 -60 -25 -39 -2 5 -11 7 -21
4 -9 -4 -14 -12 -10 -18 3 -6 1 -7 -6 -3 -6 4 -10 10 -7 14 2 4 -8 18 -22 32
-13 14 -22 19 -18 13 4 -7 2 -13 -3 -13 -6 0 -20 -8 -31 -17 l-21 -18 23 -7
c19 -5 17 -6 -8 -5 -31 1 -32 1 -16 27 9 14 25 33 36 42 l21 17 -21 -5 c-12
-3 -26 -16 -32 -29 -10 -22 -25 -26 -47 -14 -5 3 -18 9 -27 12 -14 5 -15 2 -6
-24 6 -17 14 -26 21 -22 8 5 7 8 -1 11 -7 2 -10 8 -7 13 4 5 12 3 19 -3 11
-11 11 -15 -2 -24 -9 -6 -24 -9 -33 -7 -21 6 -47 33 -31 33 6 0 12 -6 15 -12
2 -7 7 -11 10 -8 3 3 2 12 -3 20 -8 12 -13 13 -30 2 -12 -7 -20 -8 -20 -2 0 5
9 15 20 22 11 7 20 17 20 22 0 4 -8 2 -17 -5 -15 -12 -16 -12 -10 3 4 12 2 15
-8 12 -8 -3 -13 -15 -12 -26 3 -26 -16 -34 -35 -15 -11 11 -19 12 -34 4 -16
-9 -17 -8 -6 5 10 13 8 15 -16 14 -16 -1 -29 -7 -29 -14 0 -7 6 -11 14 -8 7 3
13 1 13 -4 0 -6 -9 -10 -19 -10 -11 0 -26 -9 -34 -21 -9 -13 -17 -16 -22 -10
-3 6 -1 11 6 11 8 0 8 4 -2 16 -9 11 -22 14 -48 9 -27 -4 -32 -3 -21 5 13 9
12 10 -5 8 -12 -2 -21 4 -23 15 -3 16 -1 17 20 7 22 -10 22 -10 4 4 -10 9 -23
13 -27 10 -12 -7 -11 -44 0 -44 5 0 11 -7 14 -15 5 -12 2 -12 -18 -3 -13 6
-26 19 -28 30 -6 20 -27 17 -27 -3 0 -6 5 -7 12 -3 6 4 8 3 4 -4 -4 -7 -14 -6
-33 3 -24 13 -28 12 -40 -5 -8 -11 -19 -20 -25 -20 -7 0 -6 6 2 15 10 12 10
15 -1 16 -8 0 -5 4 6 9 16 7 14 8 -12 7 -22 -2 -28 -5 -22 -13 6 -8 4 -14 -7
-18 -22 -8 -26 -8 -19 3 3 5 1 12 -5 16 -5 3 -10 -1 -10 -11 0 -13 -3 -14 -15
-4 -8 7 -12 16 -10 21 3 4 -3 7 -14 6 -10 0 -17 -6 -14 -13 2 -7 -1 -15 -8
-20 -8 -4 -10 -3 -5 4 4 7 3 12 -2 12 -6 0 -9 8 -7 18 1 9 0 12 -2 6 -8 -22
-42 -23 -48 -3 -4 10 -11 19 -16 19 -12 0 -12 -17 1 -25 6 -3 9 -16 9 -28 -1
-20 -2 -20 -6 -3 -6 24 -28 47 -37 39 -3 -3 -14 2 -25 11 -15 13 -20 14 -24 4
-4 -8 -8 -9 -14 -3 -4 6 -18 11 -31 12 -16 2 -22 -2 -20 -14 2 -9 -3 -18 -10
-20 -8 -3 -10 1 -5 13 4 12 3 15 -6 10 -6 -4 -18 -2 -26 4 -12 10 -15 9 -15
-3 0 -8 6 -18 13 -20 9 -4 9 -6 0 -6 -7 -1 -20 11 -28 27 -14 23 -16 24 -12 5
3 -13 1 -26 -4 -29 -5 -3 -8 0 -7 7 2 6 -3 14 -11 17 -9 3 -11 0 -6 -8 5 -8 4
-11 -3 -6 -6 3 -12 -2 -14 -14 -3 -18 -4 -18 -14 4 -9 19 -9 23 1 20 6 -3 12
2 12 9 0 8 -7 14 -16 12 -9 -1 -24 6 -35 17 -10 11 -21 16 -25 12 -3 -4 0 -9
7 -11 6 -3 12 -13 12 -23 0 -15 -7 -19 -30 -17 -17 1 -30 8 -30 15 0 10 5 10
20 2 11 -6 20 -7 20 -2 0 13 -43 23 -50 13 -3 -5 -17 -8 -32 -8 -14 1 -24 5
-22 8 2 4 -3 12 -11 19 -12 10 -15 9 -16 -6 0 -18 -1 -18 -8 1 -5 11 -7 23 -4
27 2 4 -3 5 -11 2 -9 -3 -16 -14 -17 -23 0 -10 -2 -11 -6 -3 -2 6 -9 12 -14
12 -6 0 -7 -5 -3 -11 4 -7 1 -10 -7 -7 -7 2 -16 15 -19 28 -3 12 -16 30 -28
38 -20 13 -22 13 -16 -1 3 -9 11 -15 16 -14 6 1 13 -5 15 -13 4 -12 3 -12 -5
-2 -10 15 -21 15 -39 0 -7 -5 -17 -7 -23 -3 -5 3 -10 0 -11 -7 0 -9 -2 -10 -5
-1 -3 7 -13 9 -22 6 -15 -4 -15 -3 -2 6 13 10 13 12 0 21 -9 6 -18 6 -24 0
-16 -16 -30 -11 -16 5 7 8 11 15 9 16 -29 6 -49 4 -45 -6 2 -6 -6 -17 -17 -25
-12 -7 -19 -9 -15 -5 9 9 -9 35 -24 35 -6 0 -7 -8 -3 -17 4 -13 1 -12 -15 5
-12 13 -18 27 -14 35 5 8 2 7 -9 -2 -9 -7 -14 -18 -10 -25 4 -7 1 -6 -9 1 -8
7 -19 9 -23 5 -5 -4 -5 -2 -1 5 3 6 2 14 -4 18 -6 4 -8 11 -5 16 3 5 -1 6 -10
2 -9 -3 -13 -9 -8 -12 12 -9 14 -31 3 -31 -5 0 -10 3 -10 8 0 4 -11 8 -25 8
-14 1 -25 -2 -25 -7 0 -5 -4 -9 -9 -9 -4 0 -6 11 -4 25 4 19 0 25 -20 30 -32
8 -46 1 -42 -23 1 -9 0 -11 -2 -4 -6 15 -23 16 -23 0 0 -21 -13 1 -14 24 -1
15 -7 23 -19 23 -10 0 -22 7 -27 15 -5 8 -27 15 -52 16 -24 1 -59 5 -78 9 -19
3 -41 7 -47 7 -7 1 -13 5 -13 10 0 5 10 7 23 4 12 -3 16 -3 9 0 -6 3 -10 10
-6 15 7 13 14 49 8 49 -2 0 -9 -11 -14 -25 -5 -14 -15 -25 -22 -25 -9 0 -9 3
0 12 7 7 12 16 12 21 0 5 -10 -2 -21 -17 -12 -15 -24 -25 -27 -22 -3 3 -12 0
-21 -7 -12 -10 -12 -8 1 12 15 21 15 25 2 39 -8 8 -18 11 -22 7 -4 -4 -1 -10
6 -12 6 -3 12 -9 12 -15 0 -6 -9 -3 -20 7 -24 22 -38 14 -15 -9 15 -14 15 -16
1 -16 -9 0 -17 7 -17 15 -1 8 -3 20 -4 25 -1 6 -3 13 -4 17 0 4 -7 -1 -14 -12
-10 -12 -16 -14 -21 -7 -4 7 -3 12 2 12 6 0 13 8 17 18 5 14 4 15 -6 5 -18
-18 -58 -16 -65 2 -7 18 -44 20 -45 3 0 -10 -2 -10 -5 -1 -3 7 -12 9 -20 6
-10 -4 -12 0 -8 11 3 9 10 13 15 10 5 -3 9 -1 9 3 0 5 -10 14 -22 22 -21 13
-22 13 -10 -1 10 -13 10 -17 -3 -21 -8 -4 -14 -1 -12 6 1 7 -5 12 -13 12 -8 0
-21 6 -29 13 -7 7 -22 10 -32 7 -11 -4 -19 -2 -19 5 0 6 4 9 8 6 4 -2 14 0 22
6 12 8 12 9 -2 4 -11 -3 -18 0 -18 7 0 8 -4 6 -10 -3 -5 -8 -10 -11 -10 -6 0
5 -7 3 -15 -4 -9 -7 -14 -19 -11 -26 3 -8 0 -11 -9 -8 -12 5 -12 11 0 41 14
32 13 34 0 23 -12 -10 -19 -10 -27 -2 -11 11 -43 -1 -61 -23 -5 -6 -6 -2 -3 8
3 10 6 24 6 30 0 7 4 6 10 -3 8 -13 10 -12 10 3 0 18 -15 23 -25 8 -10 -17
-43 -8 -40 10 3 14 -2 15 -33 8 -38 -8 -52 -5 -52 13 0 7 4 7 13 -1 14 -11 27
-6 27 10 0 5 -7 6 -15 3 -8 -4 -15 -2 -15 4 0 6 -9 8 -20 5 -16 -4 -20 0 -20
18 0 17 -3 20 -9 10 -7 -10 -13 -11 -30 -2 -11 7 -21 17 -21 23 0 6 -3 8 -6 5
-4 -4 -1 -13 6 -22 10 -12 10 -15 -4 -15 -9 0 -16 5 -16 10 0 7 -6 7 -19 0
-15 -8 -19 -7 -17 6 1 9 9 20 17 25 12 8 12 10 -1 8 -41 -4 -52 1 -47 21 5 20
5 20 -26 2 -35 -21 -57 -19 -57 6 0 14 2 13 13 -2 12 -17 14 -16 37 4 25 21
25 22 2 17 -17 -4 -26 1 -37 24 -9 16 -18 29 -21 29 -2 0 0 -9 6 -20 9 -16 7
-24 -5 -36 -9 -10 -15 -11 -15 -4 0 7 -7 9 -16 6 -8 -3 -12 -2 -9 4 3 6 2 10
-3 10 -5 0 -9 7 -9 15 0 11 4 12 14 4 9 -8 13 -8 13 -1 0 14 -31 31 -46 25 -6
-2 -16 8 -22 21 -8 19 -8 26 1 29 7 2 -9 3 -35 2 -41 -1 -48 2 -48 18 0 12 -4
16 -12 11 -9 -5 -9 -2 1 9 13 17 8 22 -20 19 -3 -1 -6 5 -6 12 0 10 23 14 86
16 47 1 129 4 181 6 52 2 266 6 475 9 372 5 705 12 1015 20 85 3 279 7 430 10
151 3 316 8 365 11 50 3 124 6 165 8 41 2 136 7 210 10 273 13 321 15 615 21
165 3 332 8 370 10 39 3 131 8 205 11 74 3 137 10 139 15 1 6 6 9 10 7 3 -2
33 -17 67 -35z m-1348 -2262 c41 -28 58 -87 71 -236 6 -66 15 -144 20 -174 7
-47 5 -57 -11 -73 -11 -11 -17 -22 -14 -25 3 -3 -13 -19 -35 -35 -36 -26 -50
-30 -105 -29 -35 0 -73 5 -83 11 -31 16 -41 66 -42 205 -1 160 13 270 37 296
16 18 16 19 1 13 -19 -7 -21 4 -8 40 6 13 18 27 28 30 38 10 111 -1 141 -23z
m1123 -138 c11 -13 11 -17 1 -20 -6 -3 -15 -22 -18 -44 l-7 -39 -41 6 c-22 4
-45 10 -50 14 -4 5 -23 6 -41 3 -19 -3 -35 0 -39 6 -7 11 -2 14 49 26 17 4 25
9 19 12 -6 2 -30 -3 -53 -11 -37 -12 -43 -12 -48 1 -9 24 18 40 75 45 49 5 54
3 67 -21 8 -14 14 -21 15 -15 0 13 38 54 49 54 5 0 15 -7 22 -17z m-3806 -53
c22 -5 41 -14 43 -19 2 -6 10 -11 18 -11 9 0 12 -4 9 -10 -3 -5 -1 -10 5 -10
6 0 8 -5 5 -11 -4 -6 -13 -8 -21 -5 -9 3 -14 -1 -14 -13 0 -36 -25 -44 -122
-39 -102 6 -118 16 -118 75 0 23 5 33 16 33 8 0 12 5 9 10 -8 13 115 13 170 0z
m2219 -63 c35 -38 153 -265 162 -314 6 -29 3 -34 -20 -43 -46 -17 -98 -11
-161 18 -109 52 -161 139 -153 258 4 58 8 70 32 90 42 37 100 33 140 -9z"/>
</g>
</svg>
